<svg xmlns="http://www.w3.org/2000/svg" width="65" height="64" viewBox="0 0 65 64" fill="none">
<path fill-rule="evenodd" clip-rule="evenodd" d="M64.0635 44L64.0635 8C64.0635 3.58173 60.4818 3.50157e-06 56.0635 3.11531e-06L24.0635 3.17786e-07C19.6452 -6.84722e-08 16.0635 3.58172 16.0635 8L16.0635 56C16.0635 60.4183 19.6452 64 24.0635 64L44.0635 64L64.0635 44Z" fill="#ABCEF6"/>
<path fill-rule="evenodd" clip-rule="evenodd" d="M62.0635 43.1716L62.0635 8C62.0635 4.68629 59.3772 2 56.0635 2L24.0635 2C20.7498 2 18.0635 4.68629 18.0635 8L18.0635 56C18.0635 59.3137 20.7498 62 24.0635 62L43.235 62L62.0635 43.1716ZM64.0635 44L64.0635 8C64.0635 3.58173 60.4818 3.50157e-06 56.0635 3.11531e-06L24.0635 3.17786e-07C19.6452 -6.84722e-08 16.0635 3.58172 16.0635 8L16.0635 56C16.0635 60.4183 19.6452 64 24.0635 64L44.0635 64L64.0635 44Z" fill="#104D92"/>
<path d="M24.0635 28C24.0635 26.8954 24.9589 26 26.0635 26H34.0635C35.168 26 36.0635 26.8954 36.0635 28V36C36.0635 37.1046 35.168 38 34.0635 38H26.0635C24.9589 38 24.0635 37.1046 24.0635 36V28Z" fill="#ABCEF6"/>
<path fill-rule="evenodd" clip-rule="evenodd" d="M34.0635 28H26.0635L26.0635 36H34.0635V28ZM26.0635 26C24.9589 26 24.0635 26.8954 24.0635 28V36C24.0635 37.1046 24.9589 38 26.0635 38H34.0635C35.168 38 36.0635 37.1046 36.0635 36V28C36.0635 26.8954 35.168 26 34.0635 26H26.0635Z" fill="#104D92"/>
<path d="M24.0635 46C24.0635 44.8954 24.9589 44 26.0635 44H34.0635C35.168 44 36.0635 44.8954 36.0635 46V54C36.0635 55.1046 35.168 56 34.0635 56H26.0635C24.9589 56 24.0635 55.1046 24.0635 54V46Z" fill="#ABCEF6"/>
<path fill-rule="evenodd" clip-rule="evenodd" d="M34.0635 46H26.0635L26.0635 54H34.0635V46ZM26.0635 44C24.9589 44 24.0635 44.8954 24.0635 46V54C24.0635 55.1046 24.9589 56 26.0635 56H34.0635C35.168 56 36.0635 55.1046 36.0635 54V46C36.0635 44.8954 35.168 44 34.0635 44H26.0635Z" fill="#104D92"/>
<path fill-rule="evenodd" clip-rule="evenodd" d="M35.8068 10.331C36.1762 10.7416 36.143 11.3738 35.7325 11.7433L29.0658 17.7433C28.6855 18.0856 28.1082 18.0856 27.7279 17.7433L24.3945 14.7433C23.984 14.3738 23.9507 13.7416 24.3202 13.331C24.6897 12.9205 25.3219 12.8873 25.7324 13.2567L28.3968 15.6546L34.3945 10.2567C34.805 9.88726 35.4373 9.92053 35.8068 10.331Z" fill="#104D92"/>
<path fill-rule="evenodd" clip-rule="evenodd" d="M40.0635 28C40.0635 27.4477 40.5112 27 41.0635 27H56.0635C56.6158 27 57.0635 27.4477 57.0635 28C57.0635 28.5523 56.6158 29 56.0635 29H41.0635C40.5112 29 40.0635 28.5523 40.0635 28Z" fill="#104D92"/>
<path fill-rule="evenodd" clip-rule="evenodd" d="M40.0635 46C40.0635 45.4477 40.5112 45 41.0635 45H56.0635C56.6158 45 57.0635 45.4477 57.0635 46C57.0635 46.5523 56.6158 47 56.0635 47H41.0635C40.5112 47 40.0635 46.5523 40.0635 46Z" fill="#104D92"/>
<path fill-rule="evenodd" clip-rule="evenodd" d="M40.0635 10C40.0635 9.44772 40.5112 9 41.0635 9H56.0635C56.6158 9 57.0635 9.44772 57.0635 10C57.0635 10.5523 56.6158 11 56.0635 11H41.0635C40.5112 11 40.0635 10.5523 40.0635 10Z" fill="#104D92"/>
<path fill-rule="evenodd" clip-rule="evenodd" d="M40.0635 36C40.0635 35.4477 40.5112 35 41.0635 35H56.0635C56.6158 35 57.0635 35.4477 57.0635 36C57.0635 36.5523 56.6158 37 56.0635 37H41.0635C40.5112 37 40.0635 36.5523 40.0635 36Z" fill="#104D92"/>
<path fill-rule="evenodd" clip-rule="evenodd" d="M40.0635 54C40.0635 53.4477 40.5112 53 41.0635 53H46.0635C46.6158 53 47.0635 53.4477 47.0635 54C47.0635 54.5523 46.6158 55 46.0635 55H41.0635C40.5112 55 40.0635 54.5523 40.0635 54Z" fill="#104D92"/>
<path fill-rule="evenodd" clip-rule="evenodd" d="M40.0635 18C40.0635 17.4477 40.5112 17 41.0635 17H56.0635C56.6158 17 57.0635 17.4477 57.0635 18C57.0635 18.5523 56.6158 19 56.0635 19H41.0635C40.5112 19 40.0635 18.5523 40.0635 18Z" fill="#104D92"/>
<path d="M44.0635 64L44.0635 52C44.0635 47.5817 47.6452 44 52.0635 44L64.0635 44L44.0635 64Z" fill="#ABCEF6"/>
<path fill-rule="evenodd" clip-rule="evenodd" d="M44.0635 64L64.0635 44L52.0635 44C47.6452 44 44.0635 47.5817 44.0635 52L44.0635 64ZM46.0635 59.1716L59.2351 46L52.0635 46C48.7498 46 46.0635 48.6863 46.0635 52L46.0635 59.1716Z" fill="#104D92"/>
<path fill-rule="evenodd" clip-rule="evenodd" d="M8.06234 64C10.2715 64 12.0623 62.2091 12.0623 60L12.0623 12L12.1245 12L6.06234 -5.29972e-07L0.000159995 12L0.0623443 12L0.0623401 60C0.0623399 62.2091 1.8532 64 4.06234 64L8.06234 64Z" fill="#ABCEF6"/>
<path fill-rule="evenodd" clip-rule="evenodd" d="M12.1245 12L6.06234 -5.29972e-07L0.000159995 12L0.0623443 12L0.0623401 60C0.0623399 62.2091 1.8532 64 4.06234 64L8.06234 64C10.2715 64 12.0623 62.2091 12.0623 60L12.0623 12L12.1245 12ZM2.06234 12.3534L2.06234 60C2.06234 61.1046 2.95777 62 4.06234 62L8.06234 62C9.16691 62 10.0623 61.1046 10.0623 60L10.0623 12.3534L6.06234 4.43548L2.06234 12.3534Z" fill="#104D92"/>
<path fill-rule="evenodd" clip-rule="evenodd" d="M2.0625 12L10.0625 12L10.0625 14L2.0625 14L2.0625 12Z" fill="#104D92"/>
<path fill-rule="evenodd" clip-rule="evenodd" d="M2.06201 57L10.062 57L10.062 59L2.06201 59L2.06201 57Z" fill="#104D92"/>
<path fill-rule="evenodd" clip-rule="evenodd" d="M2.06201 52L10.062 52L10.062 54L2.06201 54L2.06201 52Z" fill="#104D92"/>
<script xmlns=""/></svg>